<?xml version="1.0" encoding="UTF-8"?>
<svg width="73px" height="88px" viewBox="0 0 73 88" version="1.1" xmlns="http://www.w3.org/2000/svg" xmlns:xlink="http://www.w3.org/1999/xlink">
    <!-- Generator: Sketch 52.6 (67491) - http://www.bohemiancoding.com/sketch -->
    <title>Untitled 2</title>
    <desc>Created with Sketch.</desc>
    <g id="Page-1" stroke="none" stroke-width="1" fill="none" fill-rule="evenodd">
        <g id="noun_timeline_1633916" fill="#000000">
            <g id="Group">
                <path d="M15.8,10.8 C15.8,6.54740743 12.3525926,3.1 8.1,3.1 C3.84740743,3.1 0.4,6.54740743 0.4,10.8 C0.272885305,14.6698886 3.15049096,17.9834951 7,18.4 L7,36.4 C3.27387165,37.0064429 0.536931688,40.2248436 0.536931688,44 C0.536931688,47.7751564 3.27387165,50.9935571 7,51.6 L7,69.6 C3.15049096,70.0165049 0.272885305,73.3301114 0.4,77.2 C0.399999959,79.9509451 1.86761166,82.4929232 4.24999997,83.8683957 C6.63238827,85.2438683 9.56761173,85.2438683 11.95,83.8683957 C14.3323883,82.4929232 15.8,79.9509451 15.8,77.2 C15.821682,73.2961903 12.8821879,70.0108735 9,69.6 L9,51.6 C12.7261283,50.9935571 15.4630683,47.7751564 15.4630683,44 C15.4630683,40.2248436 12.7261283,37.0064429 9,36.4 L9,18.4 C12.8821879,17.9891265 15.821682,14.7038097 15.8,10.8 Z M2.5,10.8 C2.49952145,7.69061943 4.99109794,5.1545505 8.1,5.1 C11.264602,5.0995296 13.8454379,7.63586833 13.9,10.8 C13.8454379,13.9641317 11.264602,16.5004704 8.1,16.5 C4.99109794,16.4454495 2.49952145,13.9093806 2.5,10.8 Z M13.9,77.2 C13.8454379,80.3641317 11.264602,82.9004704 8.1,82.9 C4.95197693,82.9 2.4,80.3480231 2.4,77.2 C2.4,74.0519769 4.95197693,71.5 8.1,71.5 C11.264602,71.4995296 13.8454379,74.0358683 13.9,77.2 Z M13.9,44 C13.8454379,47.1641317 11.264602,49.7004704 8.1,49.7 C4.95197699,49.6999999 2.40000017,47.148023 2.40000017,44 C2.40000017,40.851977 4.95197699,38.3000001 8.1,38.3 C11.264602,38.2995296 13.8454379,40.8358683 13.9,44 Z" id="Shape" fill-rule="nonzero"></path>
                <path d="M62,2 C62.0325803,1.72608506 61.9377481,1.45235669 61.7426957,1.25730429 C61.5476433,1.06225189 61.2739149,0.967419673 61,1 L27,1 C26.7260851,0.967419673 26.4523567,1.06225189 26.2573043,1.25730429 C26.0622519,1.45235669 25.9674197,1.72608506 26,2 L26,22 C25.9674197,22.2739149 26.0622519,22.5476433 26.2573043,22.7426957 C26.4523567,22.9377481 26.7260851,23.0325803 27,23 L61,23 C61.2739149,23.0325803 61.5476433,22.9377481 61.7426957,22.7426957 C61.9377481,22.5476433 62.0325803,22.2739149 62,22 L62,2 Z M28,3 L60,3 L60,21 L28,21 L28,3 Z" id="Shape" fill-rule="nonzero"></path>
                <path d="M72,34 C72.0325803,33.7260851 71.9377481,33.4523567 71.7426957,33.2573043 C71.5476433,33.0622519 71.2739149,32.9674197 71,33 L27,33 C26.7260851,32.9674197 26.4523567,33.0622519 26.2573043,33.2573043 C26.0622519,33.4523567 25.9674197,33.7260851 26,34 L26,54 C25.9674197,54.2739149 26.0622519,54.5476433 26.2573043,54.7426957 C26.4523567,54.9377481 26.7260851,55.0325803 27,55 L71,55 C71.2739149,55.0325803 71.5476433,54.9377481 71.7426957,54.7426957 C71.9377481,54.5476433 72.0325803,54.2739149 72,54 L72,34 Z M70,53 L28,53 L28,35 L70,35 L70,53 Z" id="Shape" fill-rule="nonzero"></path>
                <path d="M62,66 C62.0325803,65.7260851 61.9377481,65.4523567 61.7426957,65.2573043 C61.5476433,65.0622519 61.2739149,64.9674197 61,65 L27,65 C26.7260851,64.9674197 26.4523567,65.0622519 26.2573043,65.2573043 C26.0622519,65.4523567 25.9674197,65.7260851 26,66 L26,86 C25.9674197,86.2739149 26.0622519,86.5476433 26.2573043,86.7426957 C26.4523567,86.9377481 26.7260851,87.0325803 27,87 L61,87 C61.2739149,87.0325803 61.5476433,86.9377481 61.7426957,86.7426957 C61.9377481,86.5476433 62.0325803,86.2739149 62,86 L62,66 Z M60,85 L28,85 L28,67 L60,67 L60,85 Z" id="Shape" fill-rule="nonzero"></path>
                <path d="M33,10 L44.5,10 C45.0522847,10 45.5,9.55228475 45.5,9 C45.5,8.44771525 45.0522847,8 44.5,8 L33,8 C32.4477153,8 32,8.44771525 32,9 C32,9.55228475 32.4477153,10 33,10 Z" id="Path"></path>
                <path d="M54.5,14 L33,14 C32.4477153,14 32,14.4477153 32,15 C32,15.5522847 32.4477153,16 33,16 L54.5,16 C55.0522847,16 55.5,15.5522847 55.5,15 C55.5,14.4477153 55.0522847,14 54.5,14 Z" id="Path"></path>
                <path d="M33,42 L44.5,42 C45.0522847,42 45.5,41.5522847 45.5,41 C45.5,40.4477153 45.0522847,40 44.5,40 L33,40 C32.4477153,40 32,40.4477153 32,41 C32,41.5522847 32.4477153,42 33,42 Z" id="Path"></path>
                <path d="M33,48 L54.5,48 C55.0522847,48 55.5,47.5522847 55.5,47 C55.5,46.4477153 55.0522847,46 54.5,46 L33,46 C32.4477153,46 32,46.4477153 32,47 C32,47.5522847 32.4477153,48 33,48 Z" id="Path"></path>
                <path d="M33,74 L44.5,74 C45.0522847,74 45.5,73.5522847 45.5,73 C45.5,72.4477153 45.0522847,72 44.5,72 L33,72 C32.4477153,72 32,72.4477153 32,73 C32,73.5522847 32.4477153,74 33,74 Z" id="Path"></path>
                <path d="M33,80 L54.5,80 C55.0522847,80 55.5,79.5522847 55.5,79 C55.5,78.4477153 55.0522847,78 54.5,78 L33,78 C32.4477153,78 32,78.4477153 32,79 C32,79.5522847 32.4477153,80 33,80 Z" id="Path"></path>
            </g>
        </g>
    </g>
</svg>